<mxfile host="app.diagrams.net" modified="2024-03-23T00:18:08.956Z" agent="Mozilla/5.0 (X11; Linux x86_64) AppleWebKit/537.36 (KHTML, like Gecko) Chrome/122.0.0.0 Safari/537.36" etag="P2i2D9KyY01JLASG6_NB" version="24.0.7" type="google">
  <diagram id="C5RBs43oDa-KdzZeNtuy" name="Page-1">
    <mxGraphModel grid="0" page="0" gridSize="10" guides="1" tooltips="1" connect="1" arrows="1" fold="1" pageScale="1" pageWidth="827" pageHeight="1169" math="0" shadow="0">
      <root>
        <mxCell id="WIyWlLk6GJQsqaUBKTNV-0" />
        <mxCell id="WIyWlLk6GJQsqaUBKTNV-1" parent="WIyWlLk6GJQsqaUBKTNV-0" />
        <mxCell id="qqNLY5QGKkoo4D5K0Xml-2" style="edgeStyle=orthogonalEdgeStyle;rounded=0;orthogonalLoop=1;jettySize=auto;html=1;entryX=0.5;entryY=0;entryDx=0;entryDy=0;" edge="1" parent="WIyWlLk6GJQsqaUBKTNV-1" source="qqNLY5QGKkoo4D5K0Xml-0" target="qqNLY5QGKkoo4D5K0Xml-1">
          <mxGeometry relative="1" as="geometry" />
        </mxCell>
        <mxCell id="qqNLY5QGKkoo4D5K0Xml-0" value="Начано" style="ellipse;whiteSpace=wrap;html=1;" vertex="1" parent="WIyWlLk6GJQsqaUBKTNV-1">
          <mxGeometry x="271" y="79" width="82" height="47" as="geometry" />
        </mxCell>
        <mxCell id="qqNLY5QGKkoo4D5K0Xml-4" style="edgeStyle=orthogonalEdgeStyle;rounded=0;orthogonalLoop=1;jettySize=auto;html=1;entryX=0.5;entryY=0;entryDx=0;entryDy=0;" edge="1" parent="WIyWlLk6GJQsqaUBKTNV-1" source="qqNLY5QGKkoo4D5K0Xml-1" target="qqNLY5QGKkoo4D5K0Xml-3">
          <mxGeometry relative="1" as="geometry" />
        </mxCell>
        <mxCell id="qqNLY5QGKkoo4D5K0Xml-1" value="&lt;span style=&quot;font-size: 12px;&quot;&gt;Ввод&lt;/span&gt;&lt;div&gt;&lt;span style=&quot;font-size: 12px;&quot;&gt;аргумент: arr&lt;/span&gt;&lt;/div&gt;" style="shape=parallelogram;perimeter=parallelogramPerimeter;whiteSpace=wrap;html=1;fixedSize=1;" vertex="1" parent="WIyWlLk6GJQsqaUBKTNV-1">
          <mxGeometry x="252" y="149" width="120" height="60" as="geometry" />
        </mxCell>
        <mxCell id="XiWVzvwrQo5x5tUswZ0F-3" style="edgeStyle=orthogonalEdgeStyle;rounded=0;orthogonalLoop=1;jettySize=auto;html=1;" edge="1" parent="WIyWlLk6GJQsqaUBKTNV-1" source="qqNLY5QGKkoo4D5K0Xml-3" target="XiWVzvwrQo5x5tUswZ0F-0">
          <mxGeometry relative="1" as="geometry" />
        </mxCell>
        <mxCell id="qqNLY5QGKkoo4D5K0Xml-3" value="&lt;span style=&quot;font-size: 12px;&quot;&gt;minimum = arr[0];&amp;nbsp; index = 0;&lt;/span&gt;" style="rounded=0;whiteSpace=wrap;html=1;" vertex="1" parent="WIyWlLk6GJQsqaUBKTNV-1">
          <mxGeometry x="249.75" y="246" width="124.5" height="48" as="geometry" />
        </mxCell>
        <mxCell id="qqNLY5QGKkoo4D5K0Xml-101" value="Конец" style="ellipse;whiteSpace=wrap;html=1;" vertex="1" parent="WIyWlLk6GJQsqaUBKTNV-1">
          <mxGeometry x="537" y="623" width="89" height="45" as="geometry" />
        </mxCell>
        <mxCell id="XiWVzvwrQo5x5tUswZ0F-4" style="edgeStyle=orthogonalEdgeStyle;rounded=0;orthogonalLoop=1;jettySize=auto;html=1;entryX=0;entryY=0.5;entryDx=0;entryDy=0;" edge="1" parent="WIyWlLk6GJQsqaUBKTNV-1" source="XiWVzvwrQo5x5tUswZ0F-0" target="XiWVzvwrQo5x5tUswZ0F-1">
          <mxGeometry relative="1" as="geometry" />
        </mxCell>
        <mxCell id="XiWVzvwrQo5x5tUswZ0F-32" style="edgeStyle=orthogonalEdgeStyle;rounded=0;orthogonalLoop=1;jettySize=auto;html=1;entryX=0.5;entryY=0;entryDx=0;entryDy=0;" edge="1" parent="WIyWlLk6GJQsqaUBKTNV-1" source="XiWVzvwrQo5x5tUswZ0F-0" target="XiWVzvwrQo5x5tUswZ0F-31">
          <mxGeometry relative="1" as="geometry" />
        </mxCell>
        <mxCell id="XiWVzvwrQo5x5tUswZ0F-0" value="i &amp;lt; n" style="rhombus;whiteSpace=wrap;html=1;" vertex="1" parent="WIyWlLk6GJQsqaUBKTNV-1">
          <mxGeometry x="272" y="395" width="80" height="46" as="geometry" />
        </mxCell>
        <mxCell id="XiWVzvwrQo5x5tUswZ0F-6" style="edgeStyle=orthogonalEdgeStyle;rounded=0;orthogonalLoop=1;jettySize=auto;html=1;entryX=0;entryY=0.5;entryDx=0;entryDy=0;" edge="1" parent="WIyWlLk6GJQsqaUBKTNV-1" source="XiWVzvwrQo5x5tUswZ0F-1" target="XiWVzvwrQo5x5tUswZ0F-2">
          <mxGeometry relative="1" as="geometry" />
        </mxCell>
        <mxCell id="XiWVzvwrQo5x5tUswZ0F-11" style="edgeStyle=orthogonalEdgeStyle;rounded=0;orthogonalLoop=1;jettySize=auto;html=1;entryX=0.5;entryY=1;entryDx=0;entryDy=0;" edge="1" parent="WIyWlLk6GJQsqaUBKTNV-1" source="XiWVzvwrQo5x5tUswZ0F-1" target="XiWVzvwrQo5x5tUswZ0F-8">
          <mxGeometry relative="1" as="geometry" />
        </mxCell>
        <mxCell id="XiWVzvwrQo5x5tUswZ0F-1" value="arr[i] &amp;lt; minimum" style="rhombus;whiteSpace=wrap;html=1;" vertex="1" parent="WIyWlLk6GJQsqaUBKTNV-1">
          <mxGeometry x="400" y="387" width="137" height="62" as="geometry" />
        </mxCell>
        <mxCell id="XiWVzvwrQo5x5tUswZ0F-2" value="minimum = arr[i]&lt;div&gt;index = i&lt;/div&gt;" style="rounded=0;whiteSpace=wrap;html=1;" vertex="1" parent="WIyWlLk6GJQsqaUBKTNV-1">
          <mxGeometry x="589" y="389" width="120" height="60" as="geometry" />
        </mxCell>
        <mxCell id="XiWVzvwrQo5x5tUswZ0F-30" style="edgeStyle=orthogonalEdgeStyle;rounded=0;orthogonalLoop=1;jettySize=auto;html=1;" edge="1" parent="WIyWlLk6GJQsqaUBKTNV-1" source="XiWVzvwrQo5x5tUswZ0F-8">
          <mxGeometry relative="1" as="geometry">
            <mxPoint x="312.3732681274414" y="325" as="targetPoint" />
          </mxGeometry>
        </mxCell>
        <mxCell id="XiWVzvwrQo5x5tUswZ0F-8" value="i++" style="rounded=0;whiteSpace=wrap;html=1;" vertex="1" parent="WIyWlLk6GJQsqaUBKTNV-1">
          <mxGeometry x="443" y="315" width="51" height="20" as="geometry" />
        </mxCell>
        <mxCell id="XiWVzvwrQo5x5tUswZ0F-12" value="да" style="text;html=1;align=center;verticalAlign=middle;resizable=0;points=[];autosize=1;strokeColor=none;fillColor=none;" vertex="1" parent="WIyWlLk6GJQsqaUBKTNV-1">
          <mxGeometry x="356" y="389" width="32" height="26" as="geometry" />
        </mxCell>
        <mxCell id="XiWVzvwrQo5x5tUswZ0F-13" value="да" style="text;html=1;align=center;verticalAlign=middle;resizable=0;points=[];autosize=1;strokeColor=none;fillColor=none;" vertex="1" parent="WIyWlLk6GJQsqaUBKTNV-1">
          <mxGeometry x="550" y="389" width="32" height="26" as="geometry" />
        </mxCell>
        <mxCell id="XiWVzvwrQo5x5tUswZ0F-25" value="" style="endArrow=classic;html=1;rounded=0;exitX=0.5;exitY=0;exitDx=0;exitDy=0;entryX=1;entryY=0.5;entryDx=0;entryDy=0;" edge="1" parent="WIyWlLk6GJQsqaUBKTNV-1" source="XiWVzvwrQo5x5tUswZ0F-2" target="XiWVzvwrQo5x5tUswZ0F-8">
          <mxGeometry width="50" height="50" relative="1" as="geometry">
            <mxPoint x="295" y="208" as="sourcePoint" />
            <mxPoint x="345" y="158" as="targetPoint" />
            <Array as="points">
              <mxPoint x="649" y="325" />
            </Array>
          </mxGeometry>
        </mxCell>
        <mxCell id="XiWVzvwrQo5x5tUswZ0F-28" value="нет" style="text;html=1;align=center;verticalAlign=middle;resizable=0;points=[];autosize=1;strokeColor=none;fillColor=none;" vertex="1" parent="WIyWlLk6GJQsqaUBKTNV-1">
          <mxGeometry x="566" y="297" width="36" height="26" as="geometry" />
        </mxCell>
        <mxCell id="XiWVzvwrQo5x5tUswZ0F-29" value="нет" style="text;html=1;align=center;verticalAlign=middle;resizable=0;points=[];autosize=1;strokeColor=none;fillColor=none;" vertex="1" parent="WIyWlLk6GJQsqaUBKTNV-1">
          <mxGeometry x="488" y="352" width="36" height="26" as="geometry" />
        </mxCell>
        <mxCell id="XiWVzvwrQo5x5tUswZ0F-36" style="edgeStyle=orthogonalEdgeStyle;rounded=0;orthogonalLoop=1;jettySize=auto;html=1;" edge="1" parent="WIyWlLk6GJQsqaUBKTNV-1" source="XiWVzvwrQo5x5tUswZ0F-31" target="XiWVzvwrQo5x5tUswZ0F-34">
          <mxGeometry relative="1" as="geometry" />
        </mxCell>
        <mxCell id="XiWVzvwrQo5x5tUswZ0F-31" value="&lt;div&gt;&lt;span style=&quot;font-size: 12px;&quot;&gt;arr[index] = arr[0]&lt;/span&gt;&lt;/div&gt;&lt;div&gt;&lt;span style=&quot;font-size: 12px;&quot;&gt;arr[0] = minimum&lt;/span&gt;&lt;/div&gt;&lt;div&gt;mid = 1&lt;/div&gt;" style="rounded=0;whiteSpace=wrap;html=1;" vertex="1" parent="WIyWlLk6GJQsqaUBKTNV-1">
          <mxGeometry x="257" y="490" width="110" height="61" as="geometry" />
        </mxCell>
        <mxCell id="XiWVzvwrQo5x5tUswZ0F-33" value="нет" style="text;html=1;align=center;verticalAlign=middle;resizable=0;points=[];autosize=1;strokeColor=none;fillColor=none;" vertex="1" parent="WIyWlLk6GJQsqaUBKTNV-1">
          <mxGeometry x="320" y="448" width="36" height="26" as="geometry" />
        </mxCell>
        <mxCell id="XiWVzvwrQo5x5tUswZ0F-38" style="edgeStyle=orthogonalEdgeStyle;rounded=0;orthogonalLoop=1;jettySize=auto;html=1;" edge="1" parent="WIyWlLk6GJQsqaUBKTNV-1" source="XiWVzvwrQo5x5tUswZ0F-34" target="XiWVzvwrQo5x5tUswZ0F-37">
          <mxGeometry relative="1" as="geometry" />
        </mxCell>
        <mxCell id="XiWVzvwrQo5x5tUswZ0F-68" style="edgeStyle=orthogonalEdgeStyle;rounded=0;orthogonalLoop=1;jettySize=auto;html=1;" edge="1" parent="WIyWlLk6GJQsqaUBKTNV-1" source="XiWVzvwrQo5x5tUswZ0F-34" target="qqNLY5QGKkoo4D5K0Xml-101">
          <mxGeometry relative="1" as="geometry" />
        </mxCell>
        <mxCell id="XiWVzvwrQo5x5tUswZ0F-34" value="i &amp;lt; n" style="rhombus;whiteSpace=wrap;html=1;" vertex="1" parent="WIyWlLk6GJQsqaUBKTNV-1">
          <mxGeometry x="271" y="621" width="80" height="49" as="geometry" />
        </mxCell>
        <mxCell id="XiWVzvwrQo5x5tUswZ0F-35" style="edgeStyle=orthogonalEdgeStyle;rounded=0;orthogonalLoop=1;jettySize=auto;html=1;exitX=0.5;exitY=1;exitDx=0;exitDy=0;" edge="1" parent="WIyWlLk6GJQsqaUBKTNV-1" source="XiWVzvwrQo5x5tUswZ0F-34" target="XiWVzvwrQo5x5tUswZ0F-34">
          <mxGeometry relative="1" as="geometry" />
        </mxCell>
        <mxCell id="XiWVzvwrQo5x5tUswZ0F-45" value="" style="edgeStyle=orthogonalEdgeStyle;rounded=0;orthogonalLoop=1;jettySize=auto;html=1;" edge="1" parent="WIyWlLk6GJQsqaUBKTNV-1" source="XiWVzvwrQo5x5tUswZ0F-37" target="XiWVzvwrQo5x5tUswZ0F-44">
          <mxGeometry relative="1" as="geometry" />
        </mxCell>
        <mxCell id="XiWVzvwrQo5x5tUswZ0F-58" value="" style="edgeStyle=orthogonalEdgeStyle;rounded=0;orthogonalLoop=1;jettySize=auto;html=1;" edge="1" parent="WIyWlLk6GJQsqaUBKTNV-1" source="XiWVzvwrQo5x5tUswZ0F-37" target="XiWVzvwrQo5x5tUswZ0F-57">
          <mxGeometry relative="1" as="geometry" />
        </mxCell>
        <mxCell id="XiWVzvwrQo5x5tUswZ0F-37" value="&lt;div&gt;&lt;span style=&quot;font-size: 12px;&quot;&gt;j &amp;gt;= mid&amp;nbsp;&lt;/span&gt;&lt;/div&gt;&lt;div&gt;&lt;span style=&quot;font-size: 12px;&quot;&gt;&amp;amp;&amp;amp; arr[j] &amp;lt; arr[j - mid]&lt;/span&gt;&lt;/div&gt;" style="rhombus;whiteSpace=wrap;html=1;" vertex="1" parent="WIyWlLk6GJQsqaUBKTNV-1">
          <mxGeometry x="219" y="737" width="185" height="110" as="geometry" />
        </mxCell>
        <mxCell id="XiWVzvwrQo5x5tUswZ0F-39" value="да" style="text;html=1;align=center;verticalAlign=middle;resizable=0;points=[];autosize=1;strokeColor=none;fillColor=none;" vertex="1" parent="WIyWlLk6GJQsqaUBKTNV-1">
          <mxGeometry x="277" y="696" width="32" height="26" as="geometry" />
        </mxCell>
        <mxCell id="XiWVzvwrQo5x5tUswZ0F-41" value="нет" style="text;html=1;align=center;verticalAlign=middle;resizable=0;points=[];autosize=1;strokeColor=none;fillColor=none;" vertex="1" parent="WIyWlLk6GJQsqaUBKTNV-1">
          <mxGeometry x="106" y="673" width="36" height="26" as="geometry" />
        </mxCell>
        <mxCell id="XiWVzvwrQo5x5tUswZ0F-48" value="" style="edgeStyle=orthogonalEdgeStyle;rounded=0;orthogonalLoop=1;jettySize=auto;html=1;" edge="1" parent="WIyWlLk6GJQsqaUBKTNV-1" source="XiWVzvwrQo5x5tUswZ0F-44" target="XiWVzvwrQo5x5tUswZ0F-47">
          <mxGeometry relative="1" as="geometry" />
        </mxCell>
        <mxCell id="XiWVzvwrQo5x5tUswZ0F-44" value="&lt;div&gt;&lt;span style=&quot;font-size: 12px;&quot;&gt;temp = arr[j];&amp;nbsp;&lt;/span&gt;&lt;/div&gt;&lt;div&gt;&lt;span style=&quot;font-size: 12px;&quot;&gt;arr[j] = arr[j - mid];&amp;nbsp;&lt;/span&gt;&lt;/div&gt;&lt;div&gt;&lt;span style=&quot;font-size: 12px;&quot;&gt;arr[j - mid] = temp;&lt;/span&gt;&lt;/div&gt;" style="whiteSpace=wrap;html=1;" vertex="1" parent="WIyWlLk6GJQsqaUBKTNV-1">
          <mxGeometry x="249" y="899" width="126" height="60" as="geometry" />
        </mxCell>
        <mxCell id="XiWVzvwrQo5x5tUswZ0F-47" value="j--" style="whiteSpace=wrap;html=1;" vertex="1" parent="WIyWlLk6GJQsqaUBKTNV-1">
          <mxGeometry x="452" y="694" width="57" height="30" as="geometry" />
        </mxCell>
        <mxCell id="XiWVzvwrQo5x5tUswZ0F-49" value="да" style="text;html=1;align=center;verticalAlign=middle;resizable=0;points=[];autosize=1;strokeColor=none;fillColor=none;" vertex="1" parent="WIyWlLk6GJQsqaUBKTNV-1">
          <mxGeometry x="320" y="860" width="32" height="26" as="geometry" />
        </mxCell>
        <mxCell id="XiWVzvwrQo5x5tUswZ0F-55" style="edgeStyle=orthogonalEdgeStyle;rounded=0;orthogonalLoop=1;jettySize=auto;html=1;entryX=1.019;entryY=0.485;entryDx=0;entryDy=0;entryPerimeter=0;" edge="1" parent="WIyWlLk6GJQsqaUBKTNV-1" source="XiWVzvwrQo5x5tUswZ0F-47" target="XiWVzvwrQo5x5tUswZ0F-39">
          <mxGeometry relative="1" as="geometry" />
        </mxCell>
        <mxCell id="XiWVzvwrQo5x5tUswZ0F-61" value="" style="edgeStyle=orthogonalEdgeStyle;rounded=0;orthogonalLoop=1;jettySize=auto;html=1;" edge="1" parent="WIyWlLk6GJQsqaUBKTNV-1" source="XiWVzvwrQo5x5tUswZ0F-57" target="XiWVzvwrQo5x5tUswZ0F-60">
          <mxGeometry relative="1" as="geometry" />
        </mxCell>
        <mxCell id="XiWVzvwrQo5x5tUswZ0F-64" value="" style="edgeStyle=orthogonalEdgeStyle;rounded=0;orthogonalLoop=1;jettySize=auto;html=1;" edge="1" parent="WIyWlLk6GJQsqaUBKTNV-1" source="XiWVzvwrQo5x5tUswZ0F-57" target="XiWVzvwrQo5x5tUswZ0F-63">
          <mxGeometry relative="1" as="geometry" />
        </mxCell>
        <mxCell id="XiWVzvwrQo5x5tUswZ0F-57" value="i ==&amp;nbsp; 2*mid-1" style="rhombus;whiteSpace=wrap;html=1;" vertex="1" parent="WIyWlLk6GJQsqaUBKTNV-1">
          <mxGeometry x="37" y="763" width="125" height="58" as="geometry" />
        </mxCell>
        <mxCell id="XiWVzvwrQo5x5tUswZ0F-59" value="нет" style="text;html=1;align=center;verticalAlign=middle;resizable=0;points=[];autosize=1;strokeColor=none;fillColor=none;" vertex="1" parent="WIyWlLk6GJQsqaUBKTNV-1">
          <mxGeometry x="175" y="760" width="36" height="26" as="geometry" />
        </mxCell>
        <mxCell id="XiWVzvwrQo5x5tUswZ0F-62" style="edgeStyle=orthogonalEdgeStyle;rounded=0;orthogonalLoop=1;jettySize=auto;html=1;" edge="1" parent="WIyWlLk6GJQsqaUBKTNV-1" source="XiWVzvwrQo5x5tUswZ0F-60">
          <mxGeometry relative="1" as="geometry">
            <mxPoint x="314.36707414899547" y="593.5" as="targetPoint" />
          </mxGeometry>
        </mxCell>
        <mxCell id="XiWVzvwrQo5x5tUswZ0F-60" value="i++" style="whiteSpace=wrap;html=1;" vertex="1" parent="WIyWlLk6GJQsqaUBKTNV-1">
          <mxGeometry x="73.25" y="584" width="52.5" height="19" as="geometry" />
        </mxCell>
        <mxCell id="XiWVzvwrQo5x5tUswZ0F-63" value="&lt;span style=&quot;font-size: 12px;&quot;&gt;mid = 2 * mid;&lt;/span&gt;" style="whiteSpace=wrap;html=1;" vertex="1" parent="WIyWlLk6GJQsqaUBKTNV-1">
          <mxGeometry x="-103" y="774.5" width="81.5" height="35" as="geometry" />
        </mxCell>
        <mxCell id="XiWVzvwrQo5x5tUswZ0F-65" value="да" style="text;html=1;align=center;verticalAlign=middle;resizable=0;points=[];autosize=1;strokeColor=none;fillColor=none;" vertex="1" parent="WIyWlLk6GJQsqaUBKTNV-1">
          <mxGeometry x="-5" y="760" width="32" height="26" as="geometry" />
        </mxCell>
        <mxCell id="XiWVzvwrQo5x5tUswZ0F-67" value="" style="endArrow=classic;html=1;rounded=0;exitX=0.5;exitY=0;exitDx=0;exitDy=0;entryX=0;entryY=0.5;entryDx=0;entryDy=0;" edge="1" parent="WIyWlLk6GJQsqaUBKTNV-1" source="XiWVzvwrQo5x5tUswZ0F-63" target="XiWVzvwrQo5x5tUswZ0F-60">
          <mxGeometry width="50" height="50" relative="1" as="geometry">
            <mxPoint x="180" y="662" as="sourcePoint" />
            <mxPoint x="230" y="612" as="targetPoint" />
            <Array as="points">
              <mxPoint x="-62" y="594" />
            </Array>
          </mxGeometry>
        </mxCell>
        <mxCell id="XiWVzvwrQo5x5tUswZ0F-69" value="нет" style="text;html=1;align=center;verticalAlign=middle;resizable=0;points=[];autosize=1;strokeColor=none;fillColor=none;" vertex="1" parent="WIyWlLk6GJQsqaUBKTNV-1">
          <mxGeometry x="416" y="617" width="36" height="26" as="geometry" />
        </mxCell>
      </root>
    </mxGraphModel>
  </diagram>
</mxfile>
